<mxfile host="app.diagrams.net" agent="Mozilla/5.0 (Windows NT 10.0; Win64; x64) AppleWebKit/537.36 (KHTML, like Gecko) Chrome/126.0.0.0 Safari/537.36" version="24.7.6">
  <diagram name="第 1 页" id="9fFCtEiFOICI23fF63kX">
    <mxGraphModel dx="1147" dy="737" grid="1" gridSize="10" guides="1" tooltips="1" connect="1" arrows="1" fold="1" page="1" pageScale="1" pageWidth="827" pageHeight="1169" math="0" shadow="0">
      <root>
        <mxCell id="0" />
        <mxCell id="1" parent="0" />
        <mxCell id="63cvNM-mHRYMyS0TEgHi-1" value="" style="group" vertex="1" connectable="0" parent="1">
          <mxGeometry x="60" y="120" width="70" height="540" as="geometry" />
        </mxCell>
        <mxCell id="63cvNM-mHRYMyS0TEgHi-2" value="Sass平台" style="rounded=0;whiteSpace=wrap;html=1;fillColor=#d5e8d4;strokeColor=#82b366;" vertex="1" parent="63cvNM-mHRYMyS0TEgHi-1">
          <mxGeometry width="70" height="40" as="geometry" />
        </mxCell>
        <mxCell id="63cvNM-mHRYMyS0TEgHi-3" value="Sass平台" style="rounded=0;whiteSpace=wrap;html=1;fillColor=#d5e8d4;strokeColor=#82b366;" vertex="1" parent="63cvNM-mHRYMyS0TEgHi-1">
          <mxGeometry y="500" width="70" height="40" as="geometry" />
        </mxCell>
        <mxCell id="63cvNM-mHRYMyS0TEgHi-4" style="edgeStyle=orthogonalEdgeStyle;rounded=0;orthogonalLoop=1;jettySize=auto;html=1;exitX=0.5;exitY=1;exitDx=0;exitDy=0;entryX=0.5;entryY=0;entryDx=0;entryDy=0;endArrow=none;endFill=0;" edge="1" parent="63cvNM-mHRYMyS0TEgHi-1" source="63cvNM-mHRYMyS0TEgHi-2" target="63cvNM-mHRYMyS0TEgHi-3">
          <mxGeometry relative="1" as="geometry" />
        </mxCell>
        <mxCell id="63cvNM-mHRYMyS0TEgHi-5" value="1：下发删除离线分析" style="html=1;verticalAlign=bottom;endArrow=block;curved=0;rounded=0;" edge="1" parent="63cvNM-mHRYMyS0TEgHi-1">
          <mxGeometry width="80" relative="1" as="geometry">
            <mxPoint x="38" y="80" as="sourcePoint" />
            <mxPoint x="168" y="80" as="targetPoint" />
          </mxGeometry>
        </mxCell>
        <mxCell id="63cvNM-mHRYMyS0TEgHi-6" value="" style="group" vertex="1" connectable="0" parent="1">
          <mxGeometry x="170" y="120" width="110" height="540" as="geometry" />
        </mxCell>
        <mxCell id="63cvNM-mHRYMyS0TEgHi-7" style="edgeStyle=orthogonalEdgeStyle;rounded=0;orthogonalLoop=1;jettySize=auto;html=1;exitX=0.5;exitY=1;exitDx=0;exitDy=0;entryX=0.5;entryY=0;entryDx=0;entryDy=0;endArrow=block;endFill=0;verticalAlign=bottom;curved=0;" edge="1" parent="63cvNM-mHRYMyS0TEgHi-6" source="63cvNM-mHRYMyS0TEgHi-8" target="63cvNM-mHRYMyS0TEgHi-9">
          <mxGeometry relative="1" as="geometry" />
        </mxCell>
        <mxCell id="63cvNM-mHRYMyS0TEgHi-8" value="CV-Perception" style="rounded=0;whiteSpace=wrap;html=1;fillColor=#ffe6cc;strokeColor=#d79b00;" vertex="1" parent="63cvNM-mHRYMyS0TEgHi-6">
          <mxGeometry width="110" height="40" as="geometry" />
        </mxCell>
        <mxCell id="63cvNM-mHRYMyS0TEgHi-9" value="CV-Perception" style="rounded=0;whiteSpace=wrap;html=1;fillColor=#ffe6cc;strokeColor=#d79b00;" vertex="1" parent="63cvNM-mHRYMyS0TEgHi-6">
          <mxGeometry y="500" width="110" height="40" as="geometry" />
        </mxCell>
        <mxCell id="63cvNM-mHRYMyS0TEgHi-10" value="2：查询SQL判断是否存在该任务" style="html=1;verticalAlign=bottom;endArrow=block;curved=0;rounded=0;" edge="1" parent="63cvNM-mHRYMyS0TEgHi-6">
          <mxGeometry width="80" relative="1" as="geometry">
            <mxPoint x="60" y="110" as="sourcePoint" />
            <mxPoint x="210" y="110" as="targetPoint" />
          </mxGeometry>
        </mxCell>
        <mxCell id="63cvNM-mHRYMyS0TEgHi-12" value="4：更新task表，状态为-5" style="html=1;verticalAlign=bottom;endArrow=block;curved=0;rounded=0;" edge="1" parent="63cvNM-mHRYMyS0TEgHi-6">
          <mxGeometry width="80" relative="1" as="geometry">
            <mxPoint x="60" y="210" as="sourcePoint" />
            <mxPoint x="210" y="210" as="targetPoint" />
          </mxGeometry>
        </mxCell>
        <mxCell id="63cvNM-mHRYMyS0TEgHi-16" value="5：创建删除离线分析任务&lt;div&gt;添加到排队队列（优先队列）&lt;/div&gt;&lt;div&gt;异步处理&lt;/div&gt;" style="html=1;align=left;spacingLeft=2;endArrow=block;rounded=0;edgeStyle=orthogonalEdgeStyle;curved=0;rounded=0;" edge="1" parent="63cvNM-mHRYMyS0TEgHi-6">
          <mxGeometry relative="1" as="geometry">
            <mxPoint x="60" y="250" as="sourcePoint" />
            <Array as="points">
              <mxPoint x="90" y="280" />
            </Array>
            <mxPoint x="50" y="280" as="targetPoint" />
          </mxGeometry>
        </mxCell>
        <mxCell id="63cvNM-mHRYMyS0TEgHi-17" value="7：删除内存Cache中对应的关系" style="html=1;align=left;spacingLeft=2;endArrow=block;rounded=0;edgeStyle=orthogonalEdgeStyle;curved=0;rounded=0;" edge="1" parent="63cvNM-mHRYMyS0TEgHi-6">
          <mxGeometry relative="1" as="geometry">
            <mxPoint x="60" y="370" as="sourcePoint" />
            <Array as="points">
              <mxPoint x="90" y="400" />
            </Array>
            <mxPoint x="60" y="400" as="targetPoint" />
          </mxGeometry>
        </mxCell>
        <mxCell id="63cvNM-mHRYMyS0TEgHi-18" value="" style="group" vertex="1" connectable="0" parent="1">
          <mxGeometry x="340" y="120" width="80" height="540" as="geometry" />
        </mxCell>
        <mxCell id="63cvNM-mHRYMyS0TEgHi-19" style="edgeStyle=orthogonalEdgeStyle;rounded=0;orthogonalLoop=1;jettySize=auto;html=1;exitX=0.5;exitY=1;exitDx=0;exitDy=0;entryX=0.5;entryY=0;entryDx=0;entryDy=0;endArrow=none;endFill=0;" edge="1" parent="63cvNM-mHRYMyS0TEgHi-18" source="63cvNM-mHRYMyS0TEgHi-20" target="63cvNM-mHRYMyS0TEgHi-21">
          <mxGeometry relative="1" as="geometry" />
        </mxCell>
        <mxCell id="63cvNM-mHRYMyS0TEgHi-20" value="MySQL" style="rounded=0;whiteSpace=wrap;html=1;fillColor=#dae8fc;strokeColor=#6c8ebf;" vertex="1" parent="63cvNM-mHRYMyS0TEgHi-18">
          <mxGeometry width="80" height="40" as="geometry" />
        </mxCell>
        <mxCell id="63cvNM-mHRYMyS0TEgHi-21" value="MySQL" style="rounded=0;whiteSpace=wrap;html=1;fillColor=#dae8fc;strokeColor=#6c8ebf;" vertex="1" parent="63cvNM-mHRYMyS0TEgHi-18">
          <mxGeometry y="500" width="80" height="40" as="geometry" />
        </mxCell>
        <mxCell id="63cvNM-mHRYMyS0TEgHi-22" value="" style="group" vertex="1" connectable="0" parent="1">
          <mxGeometry x="480" y="120" width="80" height="540" as="geometry" />
        </mxCell>
        <mxCell id="63cvNM-mHRYMyS0TEgHi-23" style="edgeStyle=orthogonalEdgeStyle;rounded=0;orthogonalLoop=1;jettySize=auto;html=1;exitX=0.5;exitY=1;exitDx=0;exitDy=0;entryX=0.5;entryY=0;entryDx=0;entryDy=0;endArrow=none;endFill=0;" edge="1" parent="63cvNM-mHRYMyS0TEgHi-22" source="63cvNM-mHRYMyS0TEgHi-24" target="63cvNM-mHRYMyS0TEgHi-25">
          <mxGeometry relative="1" as="geometry" />
        </mxCell>
        <mxCell id="63cvNM-mHRYMyS0TEgHi-24" value="EX" style="rounded=0;whiteSpace=wrap;html=1;fillColor=#fff2cc;strokeColor=#d6b656;" vertex="1" parent="63cvNM-mHRYMyS0TEgHi-22">
          <mxGeometry width="80" height="40" as="geometry" />
        </mxCell>
        <mxCell id="63cvNM-mHRYMyS0TEgHi-25" value="EX" style="rounded=0;whiteSpace=wrap;html=1;fillColor=#fff2cc;strokeColor=#d6b656;" vertex="1" parent="63cvNM-mHRYMyS0TEgHi-22">
          <mxGeometry y="500" width="80" height="40" as="geometry" />
        </mxCell>
        <mxCell id="63cvNM-mHRYMyS0TEgHi-26" value="" style="group" vertex="1" connectable="0" parent="1">
          <mxGeometry x="620" y="120" width="110" height="540" as="geometry" />
        </mxCell>
        <mxCell id="63cvNM-mHRYMyS0TEgHi-27" style="edgeStyle=orthogonalEdgeStyle;rounded=0;orthogonalLoop=1;jettySize=auto;html=1;exitX=0.5;exitY=1;exitDx=0;exitDy=0;entryX=0.5;entryY=0;entryDx=0;entryDy=0;endArrow=none;endFill=0;" edge="1" parent="63cvNM-mHRYMyS0TEgHi-26" source="63cvNM-mHRYMyS0TEgHi-28" target="63cvNM-mHRYMyS0TEgHi-29">
          <mxGeometry relative="1" as="geometry" />
        </mxCell>
        <mxCell id="63cvNM-mHRYMyS0TEgHi-28" value="算子" style="html=1;whiteSpace=wrap;fillColor=#e1d5e7;strokeColor=#9673a6;" vertex="1" parent="63cvNM-mHRYMyS0TEgHi-26">
          <mxGeometry width="110" height="40" as="geometry" />
        </mxCell>
        <mxCell id="63cvNM-mHRYMyS0TEgHi-29" value="算子" style="html=1;whiteSpace=wrap;fillColor=#e1d5e7;strokeColor=#9673a6;" vertex="1" parent="63cvNM-mHRYMyS0TEgHi-26">
          <mxGeometry y="500" width="110" height="40" as="geometry" />
        </mxCell>
        <mxCell id="63cvNM-mHRYMyS0TEgHi-30" value="算子异步上报任务进度" style="html=1;verticalAlign=bottom;endArrow=open;dashed=1;endSize=8;curved=0;rounded=0;" edge="1" parent="1">
          <mxGeometry relative="1" as="geometry">
            <mxPoint x="672" y="580" as="sourcePoint" />
            <mxPoint x="222" y="580" as="targetPoint" />
          </mxGeometry>
        </mxCell>
        <mxCell id="63cvNM-mHRYMyS0TEgHi-14" value="3：删除路由" style="html=1;verticalAlign=bottom;endArrow=block;curved=0;rounded=0;" edge="1" parent="1">
          <mxGeometry width="80" relative="1" as="geometry">
            <mxPoint x="230" y="270" as="sourcePoint" />
            <mxPoint x="520" y="270" as="targetPoint" />
          </mxGeometry>
        </mxCell>
        <mxCell id="63cvNM-mHRYMyS0TEgHi-15" value="6：删除lob和fileAnalysis表中的任务" style="html=1;verticalAlign=bottom;endArrow=block;curved=0;rounded=0;" edge="1" parent="1">
          <mxGeometry width="80" relative="1" as="geometry">
            <mxPoint x="230" y="460" as="sourcePoint" />
            <mxPoint x="380" y="460" as="targetPoint" />
          </mxGeometry>
        </mxCell>
      </root>
    </mxGraphModel>
  </diagram>
</mxfile>
